Coordinates
version=1
nRows=107
nColumns=6
inDegrees=yes

Units are S.I. units (second, meters, Newtons, ...)
If the header above contains a line with 'inDegrees', this indicates whether rotational values are in degrees (yes) or radians (no).

endheader
time	foot_tx	hip_flexion_r	knee_angle_r	ankle_angle_r	lumbar
     34.80000000	      0.20231389	     58.17676846	    -74.23431788	      2.11840773	    -16.62745161
     34.81000000	      0.20231869	     58.17902457	    -74.23299641	      2.11693036	    -16.63001112
     34.82000000	      0.20231863	     58.18093015	    -74.23112887	      2.11565467	    -16.63223302
     34.83000000	      0.20233042	     58.18163132	    -74.22614680	      2.11182272	    -16.63461430
     34.84000000	      0.20232641	     58.18180385	    -74.22554482	      2.11191116	    -16.63486861
     34.85000000	      0.20232105	     58.18195361	    -74.22472697	      2.11181319	    -16.63511005
     34.86000000	      0.20234180	     58.18125777	    -74.21762261	      2.10616981	    -16.63678367
     34.87000000	      0.20233673	     58.18084544	    -74.21712452	      2.10623274	    -16.63655426
     34.88000000	      0.20234012	     58.17871232	    -74.21555901	      2.10568344	    -16.63507756
     34.89000000	      0.20233716	     58.17864722	    -74.21560795	      2.10555117	    -16.63503309
     34.90000000	      0.20234203	     58.17576548	    -74.21413837	      2.10522290	    -16.63239042
     34.91000000	      0.20234416	     58.17395260	    -74.21370617	      2.10510678	    -16.63043481
     34.92000000	      0.20234674	     58.17190278	    -74.21366909	      2.10536398	    -16.62793821
     34.93000000	      0.20234857	     58.16968632	    -74.21397953	      2.10588113	    -16.62498761
     34.94000000	      0.20235005	     58.16739314	    -74.21455033	      2.10656974	    -16.62167618
     34.95000000	      0.20235125	     58.16510725	    -74.21532174	      2.10731341	    -16.61813727
     34.96000000	      0.20234619	     58.17820636	    -74.21876944	      2.10837572	    -16.59739347
     34.97000000	      0.20234992	     58.17529574	    -74.21892870	      2.10842257	    -16.59462404
     34.98000000	      0.20235259	     58.17280357	    -74.21937165	      2.10845287	    -16.59201372
     34.99000000	      0.20235444	     58.17068286	    -74.21987201	      2.10831270	    -16.58957815
     35.00000000	      0.20235504	     58.16894077	    -74.22030191	      2.10792147	    -16.58740238
     35.01000000	      0.20235166	     58.16715141	    -74.22029124	      2.10754065	    -16.58463044
     35.02000000	      0.20234687	     58.16664965	    -74.22074087	      2.10669793	    -16.58399203
     35.03000000	      0.20234442	     58.16532557	    -74.21960002	      2.10548490	    -16.58099921
     35.04000000	      0.20233197	     58.16517671	    -74.21985953	      2.10490457	    -16.58087659
     35.05000000	      0.20233982	     58.16726281	    -74.21551837	      2.09977824	    -16.58006220
     35.06000000	      0.20232739	     58.16716591	    -74.21574401	      2.09928690	    -16.58001278
     35.07000000	      0.20233336	     58.17128796	    -74.21078515	      2.09238458	    -16.58634747
     35.08000000	      0.20232252	     58.17636553	    -74.21040946	      2.08909050	    -16.59301888
     35.09000000	      0.20233872	     58.17837124	    -74.20232453	      2.07926873	    -16.60922014
     35.10000000	      0.20234380	     58.15682374	    -74.19400090	      2.07191996	    -16.65780366
     35.11000000	      0.20231765	     58.17025471	    -74.19601907	      2.06904599	    -16.67222849
     35.12000000	      0.20232210	     58.14588160	    -74.18584133	      2.06031742	    -16.73779970
     35.13000000	      0.20231803	     58.16453753	    -74.18018660	      2.05066528	    -16.76114780
     35.14000000	      0.20230564	     58.15692018	    -74.17175541	      2.04274013	    -16.82134015
     35.15000000	      0.20229822	     58.18200731	    -74.16349837	      2.03192544	    -16.85000156
     35.16000000	      0.20228908	     58.20707507	    -74.15277411	      2.02084319	    -16.88424971
     35.17000000	      0.20227663	     58.23280402	    -74.14035727	      2.01003888	    -16.92304721
     35.18000000	      0.20224969	     58.23078944	    -74.12776764	      2.00421710	    -16.99821789
     35.19000000	      0.20223390	     58.26752690	    -74.11340067	      1.99460432	    -17.03416414
     35.20000000	      0.20221865	     58.30615877	    -74.09742021	      1.98560536	    -17.07280409
     35.21000000	      0.20220354	     58.34693345	    -74.08055071	      1.97790696	    -17.11405678
     35.22000000	      0.20218871	     58.39078249	    -74.06355428	      1.97182865	    -17.15760568
     35.23000000	      0.20217593	     58.43929983	    -74.04625306	      1.96710062	    -17.20204164
     35.24000000	      0.20216682	     58.49315541	    -74.02972343	      1.96410544	    -17.24806216
     35.25000000	      0.20216193	     58.55321066	    -74.01386387	      1.96278938	    -17.29506217
     35.26000000	      0.20216076	     58.62114833	    -73.99916957	      1.96316302	    -17.34254005
     35.27000000	      0.20216056	     58.72321603	    -73.98770735	      1.96431201	    -17.36122260
     35.28000000	      0.20215826	     58.81536515	    -73.97885617	      1.97004135	    -17.40194954
     35.29000000	      0.20216115	     58.91852845	    -73.97051755	      1.97669101	    -17.44232705
     35.30000000	      0.20217075	     59.03219281	    -73.96241834	      1.98378280	    -17.48356838
     35.31000000	      0.20216167	     59.12612726	    -73.95905782	      1.99864785	    -17.56057203
     35.32000000	      0.20217785	     59.28611967	    -73.95343687	      2.00601569	    -17.57726594
     35.33000000	      0.20217296	     59.39532883	    -73.95085160	      2.02330672	    -17.66667843
     35.34000000	      0.20218703	     59.57889952	    -73.94789959	      2.03386360	    -17.68791643
     35.35000000	      0.20218253	     59.70531512	    -73.94643473	      2.05392370	    -17.79184635
     35.36000000	      0.20219314	     59.90870013	    -73.94505260	      2.06748689	    -17.82764302
     35.37000000	      0.20218589	     60.05493013	    -73.94489611	      2.09026335	    -17.94877816
     35.38000000	      0.20219544	     60.27959271	    -73.94433004	      2.10602941	    -18.00208469
     35.39000000	      0.20218137	     60.44856172	    -73.94507909	      2.13131889	    -18.14294165
     35.40000000	      0.20218974	     60.69698443	    -73.94408259	      2.14843593	    -18.21640710
     35.41000000	      0.20218666	     60.92684828	    -73.94177603	      2.16873414	    -18.33839158
     35.42000000	      0.20217514	     61.17368229	    -73.94092138	      2.19059225	    -18.46708105
     35.43000000	      0.20217298	     61.43998268	    -73.93519542	      2.20837530	    -18.60258795
     35.44000000	      0.20216219	     61.72353394	    -73.92752663	      2.22485320	    -18.74950424
     35.45000000	      0.20215614	     62.02714965	    -73.91433234	      2.23726571	    -18.90441703
     35.46000000	      0.20215085	     62.34890770	    -73.89531628	      2.24634343	    -19.06977769
     35.47000000	      0.20214509	     62.68706036	    -73.87055808	      2.25351089	    -19.24613648
     35.48000000	      0.20214063	     63.03904224	    -73.84095416	      2.26063579	    -19.43321358
     35.49000000	      0.20213006	     63.40775770	    -73.80793598	      2.26936547	    -19.62748780
     35.50000000	      0.20211799	     63.79385431	    -73.77144874	      2.27959532	    -19.82705179
     35.51000000	      0.20209869	     64.20217833	    -73.73433424	      2.29283691	    -20.02588105
     35.52000000	      0.20207743	     64.63401907	    -73.69637777	      2.30845657	    -20.22269305
     35.53000000	      0.20205499	     65.09355925	    -73.65725707	      2.32575131	    -20.41429315
     35.54000000	      0.20203140	     65.58026873	    -73.61848661	      2.34597881	    -20.60170756
     35.55000000	      0.20200591	     66.09685720	    -73.57947100	      2.36879489	    -20.78375326
     35.56000000	      0.20198112	     66.64652385	    -73.53973490	      2.39397360	    -20.95809999
     35.57000000	      0.20195291	     67.22624070	    -73.50147287	      2.42387538	    -21.12904892
     35.58000000	      0.20192223	     67.84086238	    -73.46322967	      2.45733522	    -21.29328134
     35.59000000	      0.20189354	     68.48926415	    -73.42511421	      2.49460596	    -21.45247784
     35.60000000	      0.20185918	     69.17624549	    -73.38689474	      2.53559316	    -21.60378273
     35.61000000	      0.20181280	     69.90671848	    -73.34877845	      2.58069391	    -21.74240597
     35.62000000	      0.20175857	     70.69145773	    -73.30668939	      2.62710229	    -21.85675543
     35.63000000	      0.20169480	     71.54611204	    -73.25599928	      2.67187035	    -21.92924809
     35.64000000	      0.20160971	     72.48183427	    -73.19593539	      2.71600380	    -21.94522162
     35.65000000	      0.20151234	     73.50709797	    -73.12240073	      2.75714463	    -21.89192478
     35.66000000	      0.20139587	     74.62233328	    -73.03882305	      2.79890853	    -21.76401046
     35.67000000	      0.20126004	     75.82163125	    -72.94892428	      2.84473292	    -21.56210726
     35.68000000	      0.20109033	     77.09851338	    -72.85893324	      2.90108274	    -21.28588802
     35.69000000	      0.20090201	     78.44968838	    -72.77090440	      2.96952979	    -20.92965343
     35.70000000	      0.20068955	     79.86394112	    -72.69070971	      3.05649717	    -20.49680458
     35.71000000	      0.20046918	     81.32948455	    -72.62082018	      3.16530277	    -19.99064688
     35.72000000	      0.20025056	     82.83238931	    -72.56232639	      3.29979185	    -19.41700189
     35.73000000	      0.20004466	     84.36289293	    -72.51537640	      3.46347551	    -18.77570650
     35.74000000	      0.19987735	     85.90830927	    -72.47417034	      3.65579578	    -18.07066006
     35.75000000	      0.19976060	     87.44765985	    -72.43621403	      3.87906795	    -17.31664853
     35.76000000	      0.19970443	     88.96403012	    -72.39683567	      4.13359215	    -16.52290890
     35.77000000	      0.19972025	     90.43603658	    -72.35028135	      4.41796598	    -15.70602581
     35.78000000	      0.19980730	     91.83396546	    -72.29432262	      4.73316399	    -14.89375352
     35.79000000	      0.19996800	     93.13614710	    -72.22429637	      5.07651402	    -14.10578708
     35.80000000	      0.20018915	     94.31809411	    -72.13927426	      5.44742764	    -13.36599897
     35.81000000	      0.20045320	     95.35837060	    -72.03973287	      5.84476505	    -12.69659602
     35.82000000	      0.20074305	     96.23979785	    -71.92638590	      6.26641770	    -12.11539417
     35.83000000	      0.20103650	     96.94968190	    -71.80111831	      6.71046072	    -11.63489709
     35.84000000	      0.20131684	     97.48746298	    -71.66427366	      7.17299416	    -11.25184196
     35.85000000	      0.20156781	     97.85033405	    -71.51531270	      7.65032112	    -10.96555557
     35.86000000	      0.20178622	     98.04923149	    -71.35020901	      8.13655437	    -10.75560314
